<svg width="26" height="27" viewBox="0 0 26 27" fill="none" xmlns="http://www.w3.org/2000/svg">
<path d="M6.23729 1C7.02902 1.15448 7.60833 1.65655 8.14902 2.21655C9.11453 3.20137 10.0994 4.14758 11.0263 5.15172C11.8952 6.09793 11.8952 7.37241 11.0263 8.33793C10.4276 8.99448 9.77108 9.61241 9.13384 10.2497C8.99867 10.3848 8.97936 10.4621 9.0566 10.6359C9.69384 11.9683 10.6207 13.1076 11.6249 14.1697C12.6483 15.2703 13.7683 16.2552 15.0428 17.0469C15.3904 17.2593 15.7573 17.4524 16.1242 17.6455C16.2401 17.7228 16.3173 17.7034 16.4138 17.6069C16.9545 17.0662 17.4759 16.5062 18.0359 15.9848C18.3449 15.6952 18.6732 15.4248 19.0594 15.2703C20.0249 14.8455 20.8938 15.0772 21.6469 15.7917C22.709 16.8345 23.7518 17.8965 24.8138 18.9393C25.9145 20.0207 26.0111 21.4497 24.9876 22.5503C24.2345 23.3614 23.4621 24.1531 22.6511 24.9062C21.7821 25.6979 20.6814 25.891 19.5228 25.7945C17.7076 25.64 16.0663 25.0028 14.4635 24.211C12.0883 23.0331 9.92557 21.5269 8.03315 19.6731C5.17522 16.8731 2.87729 13.7062 1.56419 9.90206C1.19729 8.82068 0.965568 7.72 1.00419 6.56137C1.04281 5.51862 1.3904 4.61103 2.10488 3.85793C2.76143 3.18207 3.43729 2.5062 4.11315 1.84965C4.53798 1.42482 5.05936 1.15448 5.65798 1.03861H6.29522L6.23729 1ZM19.9283 24.5586C20.6814 24.5586 21.3766 24.3848 21.9366 23.8441C22.6704 23.149 23.3656 22.4152 24.0414 21.6814C24.5435 21.1407 24.5435 20.5228 24.0414 20.0014C22.9407 18.8814 21.84 17.7807 20.72 16.68C20.2952 16.2552 19.7545 16.2552 19.2718 16.6028C19.1366 16.6993 19.0207 16.8152 18.9049 16.931C18.3063 17.5297 17.7076 18.1283 17.109 18.7269C16.7035 19.1324 16.2787 19.1903 15.7766 18.9393C15.4097 18.7462 15.0621 18.5724 14.7145 18.36C13.2083 17.4524 11.8952 16.3131 10.698 15.0386C9.57798 13.8221 8.53522 12.5283 7.85936 11.0028C7.56971 10.3462 7.62764 9.99862 8.14902 9.49655C8.72833 8.93655 9.32695 8.35724 9.88695 7.77793C10.5821 7.06345 10.5821 6.50345 9.88695 5.78896C8.88281 4.78483 7.87867 3.78069 6.87453 2.77655C6.72005 2.62207 6.54626 2.48689 6.35315 2.39034C5.77384 2.13931 5.3104 2.39034 4.92419 2.77655C4.32557 3.37517 3.70764 3.95448 3.12833 4.57241C2.85798 4.88138 2.60695 5.22896 2.43315 5.61517C2.10488 6.42621 2.18212 7.25655 2.35591 8.08689C2.68419 9.67034 3.28281 11.1379 4.07453 12.5283C6.89384 17.5103 10.8525 21.2759 16.1049 23.5931C17.3214 24.1338 18.5766 24.5007 19.9283 24.5586Z" fill="#9DBFF5" stroke="#9DBFF5" stroke-width="0.463448" stroke-miterlimit="10"/>
</svg>
