<svg width="26" height="19" viewBox="0 0 26 19" fill="none" xmlns="http://www.w3.org/2000/svg">
<path d="M0.0546985 2.02384C0.200561 1.65919 0.291725 1.25807 0.510519 0.948107C0.948107 0.291726 1.60449 0.0182328 2.37027 0C2.40673 0 2.46143 0 2.4979 0C9.51753 0 16.5554 0 23.575 0C24.5596 0 25.3436 0.382891 25.763 1.29453C25.9088 1.60449 26 1.98738 26 2.3338C26 6.85554 26 11.3773 26 15.899C26 17.2847 24.9972 18.2511 23.575 18.2511C17.6858 18.2511 11.7966 18.2511 5.8892 18.2511C4.7223 18.2511 3.5554 18.2511 2.3885 18.2511C1.42216 18.2511 0.674614 17.8135 0.237027 16.9383C0.12763 16.7195 0.0729313 16.4642 0 16.2272C0 11.4867 0 6.76438 0 2.02384H0.0546985ZM2.68022 1.51332C2.68022 1.51332 2.77139 1.62272 2.80785 1.65919C5.65217 4.50351 8.51473 7.34783 11.359 10.1739C12.3619 11.1585 13.7293 11.1585 14.7321 10.1739C17.5764 7.36606 20.4025 4.53997 23.2286 1.71389C23.2833 1.65919 23.3198 1.60449 23.3745 1.53156H2.68022V1.51332ZM2.82609 16.7013H23.2468C21.1501 14.568 19.0168 12.3801 16.8471 10.1739C16.4642 10.5568 16.136 10.9215 15.7714 11.2679C14.6957 12.3072 13.4194 12.6536 11.979 12.2707C11.3043 12.0884 10.7574 11.7237 10.2651 11.2314C9.93689 10.885 9.59046 10.5386 9.22581 10.1739C7.0561 12.3801 4.92286 14.568 2.82609 16.7195V16.7013ZM1.58626 15.6255C3.75596 13.4011 5.90743 11.2314 7.98597 9.09818C5.90743 6.98317 3.75596 4.79523 1.58626 2.58906V15.6073V15.6255ZM24.4867 15.6438V2.57083C22.2987 4.79523 20.1473 6.98317 18.0687 9.09818C20.1655 11.2497 22.317 13.4194 24.4867 15.6438Z" fill="#9DBFF5"/>
</svg>
