<svg width="47" height="42" viewBox="0 0 47 42" fill="none" xmlns="http://www.w3.org/2000/svg">
<path d="M21.1402 40.8224L22.3738 41.7757C22.5421 41.9439 22.8224 42 23.0467 42H23.215C23.215 42 23.215 42 23.271 42C23.4953 42 23.7757 41.8878 23.9439 41.7757L24.6729 41.215C32.1869 35.3271 46.2056 24.2804 46.2056 12.6168C46.2056 5.66355 40.5421 0 33.5888 0C29.271 0 25.4019 2.13084 23.0467 5.66355C20.7477 2.18692 16.7664 0 12.5607 0C5.60748 0 0 5.66355 0 12.6168C0 24.2243 13.2336 34.5981 21.1402 40.8224ZM12.5607 2.24299C16.5421 2.24299 20.1869 4.54206 21.9252 8.13084C21.9813 8.24299 22.0374 8.41121 22.0374 8.41121C22.2617 8.85981 22.7664 9.14019 23.215 9.02804C23.6075 8.97196 23.9439 8.74766 24.0561 8.35514C24.0561 8.35514 24.1682 8.13084 24.2243 8.01869C25.9626 4.42991 29.5514 2.18692 33.5327 2.18692C39.2523 2.18692 43.9065 6.84112 43.9065 12.5607C43.9065 23.1589 30.4486 33.757 23.1589 39.4206L23.0467 39.4766L22.5421 39.0841C14.9159 33.0841 2.24299 23.1028 2.24299 12.6168C2.24299 6.8972 6.84112 2.24299 12.5607 2.24299Z" fill="#6D7DAA"/>
</svg>
