<svg width="40" height="40" viewBox="0 0 40 40" fill="none" xmlns="http://www.w3.org/2000/svg">
<path d="M0 20C0 8.9543 8.9543 0 20 0C31.0457 0 40 8.9543 40 20C40 31.0457 31.0457 40 20 40C8.9543 40 0 31.0457 0 20Z" fill="white"/>
<mask id="mask0_7_406" style="mask-type:luminance" maskUnits="userSpaceOnUse" x="0" y="0" width="40" height="40">
<path fill-rule="evenodd" clip-rule="evenodd" d="M0 20C0 8.9543 8.9543 0 20 0C31.0457 0 40 8.9543 40 20C40 31.0457 31.0457 40 20 40C8.9543 40 0 31.0457 0 20Z" fill="white"/>
</mask>
<g mask="url(#mask0_7_406)">
<path fill-rule="evenodd" clip-rule="evenodd" d="M20.001 9.33333C17.1041 9.33333 16.7406 9.346 15.6028 9.39777C14.4672 9.44977 13.6921 9.62955 13.0139 9.89333C12.3123 10.1658 11.7172 10.5302 11.1243 11.1233C10.5309 11.7162 10.1665 12.3114 9.89316 13.0127C9.62871 13.6912 9.44871 14.4665 9.3976 15.6016C9.34671 16.7394 9.33337 17.1032 9.33337 20.0001C9.33337 22.897 9.34626 23.2595 9.39782 24.3973C9.45004 25.5328 9.62982 26.3079 9.89338 26.9862C10.166 27.6877 10.5305 28.2829 11.1236 28.8758C11.7163 29.4691 12.3114 29.8344 13.0125 30.1069C13.6912 30.3707 14.4665 30.5504 15.6019 30.6024C16.7397 30.6542 17.103 30.6669 19.9997 30.6669C22.8968 30.6669 23.2593 30.6542 24.3971 30.6024C25.5327 30.5504 26.3087 30.3707 26.9873 30.1069C27.6887 29.8344 28.2829 29.4691 28.8756 28.8758C29.4689 28.2829 29.8334 27.6877 30.1067 26.9864C30.3689 26.308 30.5489 25.5326 30.6023 24.3975C30.6534 23.2597 30.6667 22.897 30.6667 20.0001C30.6667 17.1032 30.6534 16.7396 30.6023 15.6018C30.5489 14.4663 30.3689 13.6912 30.1067 13.0129C29.8334 12.3114 29.4689 11.7162 28.8756 11.1233C28.2822 10.53 27.6889 10.1656 26.9867 9.89333C26.3067 9.62955 25.5311 9.44977 24.3955 9.39777C23.2577 9.346 22.8955 9.33333 19.9977 9.33333H20.001ZM19.0441 11.2556C19.2299 11.2553 19.4298 11.2554 19.6455 11.2555L20.001 11.2556C22.8491 11.2556 23.1866 11.2658 24.3113 11.3169C25.3513 11.3645 25.9158 11.5382 26.2918 11.6842C26.7896 11.8776 27.1444 12.1087 27.5176 12.482C27.8909 12.8554 28.122 13.2109 28.3158 13.7087C28.4618 14.0843 28.6358 14.6487 28.6831 15.6887C28.7342 16.8132 28.7454 17.151 28.7454 19.9977C28.7454 22.8444 28.7342 23.1821 28.6831 24.3066C28.6356 25.3466 28.4618 25.9111 28.3158 26.2866C28.1225 26.7844 27.8909 27.1388 27.5176 27.512C27.1442 27.8853 26.7898 28.1164 26.2918 28.3097C25.9162 28.4564 25.3513 28.6298 24.3113 28.6773C23.1869 28.7284 22.8491 28.7395 20.001 28.7395C17.1528 28.7395 16.8152 28.7284 15.6908 28.6773C14.6508 28.6293 14.0863 28.4555 13.7101 28.3095C13.2123 28.1162 12.8567 27.8851 12.4834 27.5117C12.1101 27.1384 11.879 26.7837 11.6852 26.2857C11.5392 25.9102 11.3652 25.3457 11.3178 24.3057C11.2667 23.1813 11.2565 22.8435 11.2565 19.995C11.2565 17.1465 11.2667 16.8105 11.3178 15.6861C11.3654 14.6461 11.5392 14.0816 11.6852 13.7056C11.8785 13.2078 12.1101 12.8523 12.4834 12.4789C12.8567 12.1056 13.2123 11.8745 13.7101 11.6807C14.0861 11.534 14.6508 11.3607 15.6908 11.3129C16.6748 11.2685 17.0561 11.2551 19.0441 11.2529V11.2556ZM24.4149 14.3063C24.4149 13.5994 24.9882 13.0267 25.6949 13.0267V13.0263C26.4016 13.0263 26.9749 13.5996 26.9749 14.3063C26.9749 15.0129 26.4016 15.5863 25.6949 15.5863C24.9882 15.5863 24.4149 15.0129 24.4149 14.3063ZM20.0008 14.5223C16.9758 14.5224 14.5232 16.975 14.5232 20.0001C14.5232 23.0252 16.9759 25.4768 20.001 25.4768C23.0262 25.4768 25.478 23.0252 25.478 20.0001C25.478 16.975 23.026 14.5223 20.0008 14.5223ZM23.5566 20.0001C23.5566 18.0363 21.9646 16.4445 20.001 16.4445C18.0372 16.4445 16.4454 18.0363 16.4454 20.0001C16.4454 21.9637 18.0372 23.5557 20.001 23.5557C21.9646 23.5557 23.5566 21.9637 23.5566 20.0001Z" fill="#F8383F"/>
</g>
</svg>
