<svg width="28" height="25" viewBox="0 0 28 25" fill="none" xmlns="http://www.w3.org/2000/svg">
<path d="M27.6717 9.55862C27.4979 8.24552 26.2621 7.10621 24.6786 7.10621C22.9407 7.10621 21.2221 7.10621 19.4841 7.10621V3.01241C19.4841 1.23586 18.229 0 16.4717 0C11.9917 0 7.51172 0 3.03172 0C1.44828 0 0.231724 1.13931 0.0386207 2.45241C0.0386207 2.47172 0.0193103 2.49103 0 2.51034V10.9103C0.115862 11.4124 0.251034 11.9145 0.56 12.3393C0.965517 12.88 1.50621 13.2662 2.16276 13.4207C2.37517 13.4786 2.4331 13.5559 2.4331 13.7683C2.4331 14.6952 2.4331 15.6414 2.4331 16.5683C2.4331 17.1862 2.81931 17.5724 3.34069 17.4952C3.5531 17.4566 3.74621 17.3214 3.90069 17.1862C5.15586 16.0469 6.41104 14.8883 7.6469 13.7103C7.78207 13.5752 7.91724 13.5366 8.09103 13.5366C8.12966 13.5366 8.16828 13.5366 8.2069 13.5366V17.5917C8.2069 19.4069 9.44276 20.6428 11.2579 20.6428H18.5379C18.8855 20.6428 19.2331 20.6428 19.5614 20.6428C19.7352 20.6428 19.8703 20.7007 20.0055 20.8166C21.2414 21.9752 22.4966 23.1338 23.7517 24.2924C23.9062 24.4276 24.1186 24.5628 24.3117 24.6014C24.8331 24.6979 25.2193 24.2924 25.2193 23.6745C25.2193 22.7476 25.2193 21.8014 25.2193 20.8745C25.2193 20.6621 25.2772 20.5848 25.4897 20.5269C26.1462 20.3724 26.6869 19.9862 27.0924 19.4455C27.4207 19.0207 27.5559 18.5379 27.6524 18.0166V9.61655C27.6524 9.61655 27.6138 9.57793 27.6138 9.55862H27.6717ZM7.84 11.8952C7.41517 11.8952 7.0869 12.011 6.77793 12.3007C5.9669 13.0924 5.11724 13.8455 4.2869 14.6179C4.22897 14.6759 4.15172 14.7338 4.05517 14.811C4.05517 14.1159 4.05517 13.4786 4.05517 12.8414C4.05517 12.2234 3.74621 11.9145 3.12828 11.8952C2.93517 11.8952 2.74207 11.8952 2.56828 11.8566C1.96966 11.7021 1.62207 11.2 1.62207 10.4855C1.62207 8.0331 1.62207 5.58069 1.62207 3.12828C1.62207 2.20138 2.20138 1.64138 3.10897 1.64138C5.44552 1.66069 7.80138 1.64138 10.1379 1.64138C12.2428 1.64138 14.3669 1.64138 16.4717 1.64138C17.3214 1.64138 17.8621 2.16276 17.8621 2.97379C17.8621 4.78897 17.8621 5.67724 17.8621 7.12552C15.6607 7.12552 13.4593 7.12552 11.2386 7.12552C9.46207 7.12552 8.22621 8.38069 8.22621 10.1379V11.8952C8.07172 11.8952 7.93655 11.8952 7.84 11.8952ZM26.0883 17.5917C26.0883 18.3062 25.7407 18.8083 25.1421 18.9628C24.9683 19.0014 24.7752 19.0014 24.5821 19.0014C23.9641 19.0014 23.6552 19.3297 23.6552 19.9476C23.6552 20.5848 23.6552 21.2221 23.6552 21.9172C23.5586 21.8207 23.4814 21.7821 23.4234 21.7241C22.5931 20.9517 21.7628 20.1986 20.9324 19.4069C20.6234 19.1172 20.2952 19.0014 19.8703 19.0014C17.0124 19.0014 14.1738 19.0014 11.3159 19.0014C10.8717 19.0014 10.4662 18.9048 10.1572 18.5572C9.94483 18.3062 9.84828 17.9972 9.84828 17.669C9.84828 15.1393 9.84828 12.6097 9.84828 10.08C9.84828 9.26896 10.389 8.74759 11.2386 8.74759C13.3434 8.74759 15.4676 8.74759 17.5724 8.74759C19.909 8.74759 22.2648 8.74759 24.6014 8.74759C25.509 8.74759 26.0883 9.30759 26.0883 10.2345C26.0883 12.6869 26.0883 15.1393 26.0883 17.5917Z" fill="#9DBFF5"/>
</svg>
