<svg width="40" height="40" viewBox="0 0 40 40" fill="none" xmlns="http://www.w3.org/2000/svg">
<path d="M0 20C0 8.9543 8.9543 0 20 0C31.0457 0 40 8.9543 40 20C40 31.0457 31.0457 40 20 40C8.9543 40 0 31.0457 0 20Z" fill="white"/>
<path d="M30.2209 15.061C29.9756 14.1185 29.2526 13.3763 28.3347 13.1244C26.6712 12.6667 20 12.6667 20 12.6667C20 12.6667 13.3289 12.6667 11.6653 13.1244C10.7473 13.3763 10.0244 14.1185 9.77907 15.061C9.33337 16.7692 9.33337 20.3333 9.33337 20.3333C9.33337 20.3333 9.33337 23.8973 9.77907 25.6057C10.0244 26.5482 10.7473 27.2903 11.6653 27.5424C13.3289 28 20 28 20 28C20 28 26.6712 28 28.3347 27.5424C29.2526 27.2903 29.9756 26.5482 30.2209 25.6057C30.6667 23.8973 30.6667 20.3333 30.6667 20.3333C30.6667 20.3333 30.6667 16.7692 30.2209 15.061Z" fill="#F8383F"/>
<path d="M18 24V17.3333L23.3333 20.6668L18 24Z" fill="white"/>
</svg>
